<?xml version="1.0" encoding="utf-8"?>
<!-- Generator: Adobe Illustrator 27.5.0, SVG Export Plug-In . SVG Version: 6.00 Build 0)  -->
<svg version="1.1" xmlns="http://www.w3.org/2000/svg" xmlns:xlink="http://www.w3.org/1999/xlink" x="0px" y="0px"
	 viewBox="0 0 299.4 402.44" style="enable-background:new 0 0 299.4 402.44;" xml:space="preserve">
<style type="text/css">
	.st0{display:none;}
	.st1{display:inline;fill:#EBEBEB;}
	.st2{fill:#1244F0;}
	.st3{opacity:0.2;}
	.st4{fill:#7FCB8B;}
	.st5{opacity:0.1;}
	.st6{fill:#FFFFFF;}
	.st7{fill:none;stroke:#7FCB8B;stroke-width:7;stroke-linecap:round;stroke-miterlimit:10;}
</style>
<g id="Background_Complete">
</g>
<g id="Background_Simple" class="st0">
	<path class="st1" d="M305.57,44.2c24.5,48.82,16.75,110.45-13.87,155.69s-81.58,74.52-135.15,85.19
		c-38.24,7.61-79.39,6.06-114.33-11.24s-62.42-52.12-64.52-91.06c-0.79-14.71,2.33-30.33,12.14-41.31
		c15.67-17.54,42.43-18.15,65.93-17.43c23.51,0.72,50.24,0.18,65.99-17.29c12.1-13.42,13.88-32.89,20.26-49.8
		c10.84-28.75,37-51.2,67.06-57.55c4.18-0.88,8.41-1.45,12.66-1.72c33.06-2.06,64.43,14.95,81.77,43.17L305.57,44.2z"/>
</g>
<g id="Floor">
</g>
<g id="Device">
</g>
<g id="Envelope">
	<g>
		<path class="st2" d="M299.4,208.23v174.2c0,11.05-8.95,20-20,20H20c-11.05,0-20-8.95-20-20v-174.2L135.35,78.82
			c7.86-8.09,20.84-8.09,28.7,0L299.4,208.23z"/>
		<path class="st3" d="M299.4,208.23v174.2c0,11.05-8.95,20-20,20H20c-11.05,0-20-8.95-20-20v-174.2L135.35,78.82
			c7.86-8.09,20.84-8.09,28.7,0L299.4,208.23z"/>
		<path class="st4" d="M258.79,341.09H40.61c-5.31,0-9.62,15.7-9.62,10.38V147.99c0-5.31,4.31-9.62,9.62-9.62h218.18
			c5.31,0,9.62,4.31,9.62,9.62v203.48C268.41,356.78,264.1,341.09,258.79,341.09z"/>
		<polygon class="st5" points="268.41,234.67 150.48,299.31 31.93,235.33 143.75,346.44 280.5,249.31 		"/>
		<path class="st2" d="M299.4,208.23v174.2c0,11.05-8.95,20-20,20H20c-11.05,0-20-8.95-20-20v-174.2l150.09,127.35L299.4,208.23z"/>
		<path class="st3" d="M299.4,208.23v174.2c0,11.05-8.95,20-20,20H20c-11.05,0-20-8.95-20-20v-174.2l150.09,127.35L299.4,208.23z"/>
		<path class="st2" d="M299.4,367.62v14.82c0,11.05-8.95,20-20,20H20c-11.05,0-20-8.95-20-20v-14.82l135.35-101.36
			c7.86-7.04,20.84-7.04,28.7,0L299.4,367.62z"/>
		<g>
			<g>
				<g>
					<path class="st6" d="M181.63,181.77l-39.55,45.58l-23.78-18.38c-0.8-0.62-1.3-1.51-1.41-2.51c-0.12-1,0.17-1.98,0.81-2.76
						l0.52-0.65c0.73-0.89,1.79-1.36,2.87-1.36c0.76,0,1.51,0.23,2.17,0.7l19.32,13.96l33.43-39.4c0.65-0.77,1.56-1.23,2.55-1.3
						c1-0.07,1.97,0.25,2.72,0.91C182.8,177.9,182.96,180.24,181.63,181.77z"/>
				</g>
			</g>
		</g>
		<g>
			<g>
				<line class="st7" x1="26.86" y1="93.03" x2="65.5" y2="104.88"/>
			</g>
			<g>
				<line class="st7" x1="71.84" y1="28.93" x2="96.13" y2="61.22"/>
			</g>
			<g>
				<line class="st7" x1="145.9" y1="3.5" x2="146.57" y2="43.9"/>
			</g>
			<g>
				<line class="st7" x1="220.76" y1="26.46" x2="197.55" y2="59.54"/>
			</g>
			<g>
				<line class="st7" x1="267.83" y1="89.04" x2="229.61" y2="102.16"/>
			</g>
		</g>
	</g>
</g>
<g id="Character">
</g>
<g id="Plant">
</g>
</svg>
